# xmcd CD database file
#
# Track frame offsets:
#	150
#	11067
#	27332
#	33080
#	51065
#	62802
#	69672
#	87342
#	93085
#	127520
#	129722
#	151682
#	154715
#	186352
#	206465
#
# Disc length: 2831 seconds
#
# Revision: 0
# Processed by: cddbd v1.5.1PL0 Copyright (c) Steve Scherf et al.
# Submitted via: CDex 1.51
#
DISCID=b80b0d0f
DTITLE=Time Switch - 聴キ思フ或ノ頃・・・ vol.1
DYEAR=2004
DGENRE=Vocal
TTITLE0=OPENING [青春サウンドスケープ]
TTITLE1=チューリップ - 心の旅
TTITLE2=トーク 01
TTITLE3=甲斐バンド - 東京の一夜
TTITLE4=グレープ - 殺風景
TTITLE5=トーク 02
TTITLE6=アリス - 今はもうだれも
TTITLE7=トーク 03
TTITLE8=[COFFEE BREAK] ゲスト:泉麻人さん
TTITLE9=CM "ボンカレー 子連れ狼篇"
TTITLE10=トーク 04
TTITLE11=プロポーズ大作戦 テーマ曲
TTITLE12=トーク 05
TTITLE13=海援隊 - 思えば遠くへ来たもんだ
TTITLE14=ENDING
EXTD=YEAR: 2004
EXTT0=
EXTT1=
EXTT2=
EXTT3=
EXTT4=
EXTT5=
EXTT6=
EXTT7=
EXTT8=
EXTT9=
EXTT10=
EXTT11=
EXTT12=
EXTT13=
EXTT14=
PLAYORDER=
